<svg height="100%" viewBox="0 0 262 167" fill="none" xmlns="http://www.w3.org/2000/svg" class="w-8 md:w-12"><g filter="url(#filter0_d_324_151)"><mask id="path-1-outside-1_324_151" maskUnits="userSpaceOnUse" x="6" y="2" width="254" height="159" fill="black"><rect fill="white" x="6" y="2" width="254" height="159"></rect><path d="M153.338 160V3H112.505V89.3853L48.7772 3H7V160H47.5971V69.1424L112.662 160H153.338Z"></path><path d="M259 160V3H218.167V89.3853L154.439 3H112.662V160H153.259V69.1424L219.819 160H259Z"></path></mask><path d="M153.338 160V3H112.505V89.3853L48.7772 3H7V160H47.5971V69.1424L112.662 160H153.338Z" fill="#0891B2"></path><path d="M259 160V3H218.167V89.3853L154.439 3H112.662V160H153.259V69.1424L219.819 160H259Z" fill="#D9010A"></path><path d="M153.338 160V161H154.338V160H153.338ZM153.338 3H154.338V2H153.338V3ZM112.505 3V2H111.505V3H112.505ZM112.505 89.3853L111.7 89.979L113.505 92.4253V89.3853H112.505ZM48.7772 3L49.5819 2.40634L49.2822 2H48.7772V3ZM7 3V2H6V3H7ZM7 160H6V161H7V160ZM47.5971 160V161H48.5971V160H47.5971ZM47.5971 69.1424L48.4101 68.5602L46.5971 66.0285V69.1424H47.5971ZM112.662 160L111.849 160.582L112.148 161H112.662V160ZM259 160V161H260V160H259ZM259 3H260V2H259V3ZM218.167 3V2H217.167V3H218.167ZM218.167 89.3853L217.362 89.979L219.167 92.4253V89.3853H218.167ZM154.439 3L155.244 2.40634L154.944 2H154.439V3ZM112.662 3V2H111.662V3H112.662ZM153.259 160V161H154.259V160H153.259ZM153.259 69.1424L154.065 68.5515L152.259 66.0853V69.1424H153.259ZM219.819 160L219.012 160.591L219.312 161H219.819V160ZM154.338 160V3H152.338V160H154.338ZM153.338 2H112.505V4H153.338V2ZM111.505 3V89.3853H113.505V3H111.505ZM113.31 88.7917L49.5819 2.40634L47.9725 3.59366L111.7 89.979L113.31 88.7917ZM48.7772 2H7V4H48.7772V2ZM6 3V160H8V3H6ZM7 161H47.5971V159H7V161ZM48.5971 160V69.1424H46.5971V160H48.5971ZM46.784 69.7247L111.849 160.582L113.475 159.418L48.4101 68.5602L46.784 69.7247ZM112.662 161H153.338V159H112.662V161ZM260 160V3H258V160H260ZM259 2H218.167V4H259V2ZM217.167 3V89.3853H219.167V3H217.167ZM218.972 88.7917L155.244 2.40634L153.634 3.59366L217.362 89.979L218.972 88.7917ZM154.439 2H112.662V4H154.439V2ZM111.662 3V160H113.662V3H111.662ZM112.662 161H153.259V159H112.662V161ZM154.259 160V69.1424H152.259V160H154.259ZM152.452 69.7334L219.012 160.591L220.626 159.409L154.065 68.5515L152.452 69.7334ZM219.819 161H259V159H219.819V161Z" fill="black" mask="url(#path-1-outside-1_324_151)"></path></g><defs><filter id="filter0_d_324_151" x="0" y="0" width="262" height="167" filterUnits="userSpaceOnUse" color-interpolation-filters="sRGB"><feFlood flood-opacity="0" result="BackgroundImageFix"></feFlood><feColorMatrix in="SourceAlpha" type="matrix" values="0 0 0 0 0 0 0 0 0 0 0 0 0 0 0 0 0 0 127 0" result="hardAlpha"></feColorMatrix><feOffset dx="-2" dy="2"></feOffset><feGaussianBlur stdDeviation="2"></feGaussianBlur><feComposite in2="hardAlpha" operator="out"></feComposite><feColorMatrix type="matrix" values="0 0 0 0 0 0 0 0 0 0 0 0 0 0 0 0 0 0 0.25 0"></feColorMatrix><feBlend mode="normal" in2="BackgroundImageFix" result="effect1_dropShadow_324_151"></feBlend><feBlend mode="normal" in="SourceGraphic" in2="effect1_dropShadow_324_151" result="shape"></feBlend></filter></defs></svg>